<?xml version="1.0" standalone="no"?>
<!DOCTYPE svg PUBLIC "-//W3C//DTD SVG 20010904//EN"
 "http://www.w3.org/TR/2001/REC-SVG-20010904/DTD/svg10.dtd">
<svg version="1.0" xmlns="http://www.w3.org/2000/svg"
 width="700.000000pt" height="700.000000pt" viewBox="0 0 700.000000 700.000000"
 preserveAspectRatio="xMidYMid meet">
<metadata>
Created by potrace 1.14, written by Peter Selinger 2001-2017
</metadata>
<g transform="translate(0.000000,700.000000) scale(0.100000,-0.100000)"
fill="#000000" stroke="none">
<path d="M737 6990 c-337 -57 -599 -290 -704 -627 l-28 -88 0 -2775 0 -2775
28 -88 c95 -304 300 -509 604 -604 l88 -28 2775 0 2775 0 88 28 c304 95 509
300 604 604 l28 88 0 2775 0 2775 -28 88 c-95 304 -300 509 -604 604 l-88 28
-2745 1 c-1510 1 -2767 -2 -2793 -6z m5547 -1328 c119 -45 191 -106 244 -205
l27 -52 0 -2340 0 -2340 -22 -47 c-28 -62 -103 -141 -168 -178 -113 -64 101
-60 -2865 -60 -1823 0 -2710 4 -2740 11 -130 30 -258 134 -299 244 l-21 56 2
2327 3 2327 36 65 c59 107 175 186 309 210 25 4 1258 7 2740 6 l2695 -1 59
-23z"/>
<path d="M2725 4797 c-100 -34 -201 -109 -251 -189 -85 -133 -85 -333 0 -466
38 -60 121 -131 194 -165 63 -30 74 -32 177 -32 103 0 114 2 177 32 342 162
342 636 1 795 -56 27 -80 32 -162 35 -62 2 -110 -2 -136 -10z"/>
<path d="M4060 4803 c-54 -10 -151 -64 -200 -109 -151 -142 -183 -366 -77
-546 37 -64 119 -135 195 -171 62 -29 75 -32 178 -32 107 0 112 1 185 37 93
46 168 122 212 215 30 64 32 75 32 178 0 103 -2 114 -32 177 -77 162 -227 260
-395 257 -40 -1 -84 -4 -98 -6z"/>
<path d="M5338 4791 c-116 -37 -211 -120 -262 -227 -138 -291 72 -624 394
-624 265 0 471 240 429 500 -43 266 -308 432 -561 351z"/>
<path d="M1423 3485 c-79 -22 -131 -51 -195 -113 -218 -208 -156 -575 119
-705 64 -30 74 -32 184 -32 113 0 116 1 191 38 131 64 215 178 240 324 51 303
-242 568 -539 488z"/>
<path d="M2730 3485 c-120 -34 -221 -119 -277 -232 -32 -65 -37 -86 -41 -163
-6 -114 20 -203 81 -286 83 -113 206 -174 350 -174 134 0 229 41 319 137 210
225 125 595 -162 704 -73 28 -197 34 -270 14z"/>
<path d="M4040 3484 c-314 -84 -424 -478 -202 -717 90 -96 185 -137 319 -137
99 0 172 22 252 78 166 113 229 351 144 535 -92 196 -306 297 -513 241z"/>
<path d="M5365 3486 c-219 -54 -364 -271 -327 -489 25 -146 109 -260 240 -324
75 -37 78 -38 191 -38 110 0 120 2 184 32 275 131 337 498 118 706 -114 109
-259 149 -406 113z"/>
<path d="M1435 2176 c-203 -49 -338 -220 -338 -426 0 -133 49 -241 149 -329
175 -154 436 -141 598 29 165 172 165 427 1 599 -65 68 -128 105 -216 126 -75
17 -126 18 -194 1z"/>
<path d="M2761 2179 c-130 -25 -256 -125 -314 -246 -30 -64 -32 -74 -32 -183
0 -111 1 -118 34 -185 86 -175 280 -278 462 -246 145 25 263 115 327 248 35
75 37 82 37 183 0 101 -2 108 -37 183 -88 184 -282 284 -477 246z"/>
<path d="M4070 2179 c-73 -14 -171 -68 -225 -124 -207 -211 -147 -564 117
-694 131 -65 258 -63 395 4 86 42 149 108 196 204 30 63 32 72 32 181 0 109
-2 118 -32 181 -47 96 -110 162 -196 204 -105 51 -186 64 -287 44z"/>
</g>
</svg>
